<svg width="95" height="87" viewBox="0 0 95 87" fill="none" xmlns="http://www.w3.org/2000/svg">
  <!-- Influencer Sourcing & Vetting: People/network icon -->
  <!-- Center person -->
  <circle cx="47" cy="28" r="13" fill="url(#g1)"/>
  <path d="M22 72c0-13.807 11.193-25 25-25h1c13.807 0 25 11.193 25 25" stroke="url(#g1)" stroke-width="5" stroke-linecap="round" fill="none"/>
  <!-- Left person -->
  <circle cx="15" cy="36" r="9" fill="url(#g2)" opacity="0.7"/>
  <path d="M2 72c0-9.389 7.163-17 16-17" stroke="url(#g2)" stroke-width="4" stroke-linecap="round" fill="none" opacity="0.7"/>
  <!-- Right person -->
  <circle cx="80" cy="36" r="9" fill="url(#g2)" opacity="0.7"/>
  <path d="M93 72c0-9.389-7.163-17-16-17" stroke="url(#g2)" stroke-width="4" stroke-linecap="round" fill="none" opacity="0.7"/>
  <!-- Checkmark badge -->
  <circle cx="59" cy="40" r="10" fill="#10132e"/>
  <circle cx="59" cy="40" r="10" fill="url(#g3)" opacity="0.9"/>
  <path d="M54 40l3 3 7-7" stroke="white" stroke-width="2.5" stroke-linecap="round" stroke-linejoin="round" fill="none"/>
  <defs>
    <linearGradient id="g1" x1="0" y1="0" x2="95" y2="87" gradientUnits="userSpaceOnUse">
      <stop stop-color="#a855f7"/>
      <stop offset="1" stop-color="#cbacf9"/>
    </linearGradient>
    <linearGradient id="g2" x1="0" y1="0" x2="95" y2="87" gradientUnits="userSpaceOnUse">
      <stop stop-color="#818cf8"/>
      <stop offset="1" stop-color="#a855f7"/>
    </linearGradient>
    <linearGradient id="g3" x1="49" y1="30" x2="69" y2="50" gradientUnits="userSpaceOnUse">
      <stop stop-color="#22c55e"/>
      <stop offset="1" stop-color="#16a34a"/>
    </linearGradient>
  </defs>
</svg>
